<?xml version="1.0" encoding="UTF-8" standalone="no"?>
<!-- Created with Inkscape (http://www.inkscape.org/) -->

<svg
   version="1.1"
   id="svg232"
   width="10mm"
   height="15mm"
   viewBox="0 0 37.795277 56.692914"
   sodipodi:docname="leatherman-blank.svg"
   inkscape:version="1.2.2 (b0a8486541, 2022-12-01)"
   xmlns:inkscape="http://www.inkscape.org/namespaces/inkscape"
   xmlns:sodipodi="http://sodipodi.sourceforge.net/DTD/sodipodi-0.dtd"
   xmlns="http://www.w3.org/2000/svg"
   xmlns:svg="http://www.w3.org/2000/svg">
  <defs
     id="defs236" />
  <sodipodi:namedview
     id="namedview234"
     pagecolor="#ffffff"
     bordercolor="#666666"
     borderopacity="1.0"
     inkscape:showpageshadow="2"
     inkscape:pageopacity="0.0"
     inkscape:pagecheckerboard="0"
     inkscape:deskcolor="#d1d1d1"
     showgrid="false"
     inkscape:zoom="15.865384"
     inkscape:cx="23.510304"
     inkscape:cy="28.426668"
     inkscape:window-width="1920"
     inkscape:window-height="1149"
     inkscape:window-x="0"
     inkscape:window-y="23"
     inkscape:window-maximized="1"
     inkscape:current-layer="g238"
     inkscape:document-units="mm" />
  <g
     inkscape:groupmode="layer"
     inkscape:label="Image"
     id="g238">
    <path
       id="path397"
       style="fill:#000000;fill-opacity:1;stroke:#000000;stroke-width:0;stroke-linecap:butt;stroke-linejoin:miter;stroke-dasharray:none;stroke-opacity:1"
       d="m 1.7211456,0.58943713 c 0,0 -0.85124474,32.42412987 0.625702,32.86310287 1.1142369,0.331169 1.3686636,-0.05703 2.2315275,0.190267 0.8628638,0.247301 0.8168656,-0.074 1.7814108,0.868623 0.9645454,0.942611 0.4803133,3.030882 0.4516305,4.87056 -0.028683,1.839677 -0.4032602,5.201939 -0.3974082,6.810552 0.00586,1.608612 0.7212636,3.071697 1.545756,4.500915 0.8244996,1.429215 2.2900528,3.023282 4.4277638,4.030256 2.13771,1.006979 4.351528,1.274511 7.225019,1.409671 2.873491,0.135153 5.348935,-0.338251 7.523148,-1.133624 2.174211,-0.795376 2.675312,-1.133447 4.10019,-2.050096 1.424878,-0.916647 2.878009,-2.231639 3.793167,-3.772616 0.915157,-1.540976 1.305784,-1.641806 1.288612,-3.354041 -0.01715,-1.712233 -2.12446,-0.504821 -2.156378,-2.260759 -0.0343,-1.886642 0.132209,-4.745925 0.111662,-6.944396 -0.02196,-2.350126 -0.01774,-4.789491 0.08202,-7.576928 0.100198,-2.799653 0.07176,-4.078838 0.05849,-5.614148 -0.01417,-1.640462 0.193424,-5.11073 0.08339,-6.185875 -0.04529,-0.949982 -1.694666,-1.126599 -3.284734,-1.424144 -1.595848,-0.298619 -2.413462,-0.375959 -3.79675,-0.472664 -1.383288,-0.09669 -3.650614,0.0029 -5.376132,-0.993369 C 20.313728,13.117739 20.21647,12.966266 19.399151,11.381342 18.646921,9.9226341 18.682072,9.9582661 18.276255,8.1156011 17.870441,6.2729341 17.974864,0.53661013 17.974864,0.53661013 Z M 20.237957,33.479286 c 3.360336,-5.2e-4 6.084555,2.723698 6.084035,6.084034 -0.0015,3.358896 -2.725137,6.080872 -6.084035,6.080352 -3.357459,-0.0015 -6.078842,-2.722892 -6.080354,-6.080352 -5.2e-4,-3.358897 2.721456,-6.082522 6.080354,-6.084034 z"
       sodipodi:nodetypes="cssssssssssscsssscsscssccccccc" />
  </g>
</svg>
